<mxfile host="Electron" agent="Mozilla/5.0 (Windows NT 10.0; Win64; x64) AppleWebKit/537.36 (KHTML, like Gecko) draw.io/28.2.5 Chrome/138.0.7204.251 Electron/37.6.1 Safari/537.36" version="28.2.5">
  <diagram name="Page-1" id="IJF9OBRXAhVwx-sXfTxA">
    <mxGraphModel dx="2246" dy="1703" grid="1" gridSize="10" guides="1" tooltips="1" connect="1" arrows="1" fold="1" page="1" pageScale="1" pageWidth="827" pageHeight="1169" math="0" shadow="0">
      <root>
        <mxCell id="0" />
        <mxCell id="1" parent="0" />
        <mxCell id="a_hzqXdRy0SeVPvStvxa-34" style="edgeStyle=orthogonalEdgeStyle;rounded=0;orthogonalLoop=1;jettySize=auto;html=1;exitX=0.5;exitY=1;exitDx=0;exitDy=0;exitPerimeter=0;entryX=0.5;entryY=0;entryDx=0;entryDy=0;" parent="1" source="a_hzqXdRy0SeVPvStvxa-29" target="a_hzqXdRy0SeVPvStvxa-32" edge="1">
          <mxGeometry relative="1" as="geometry" />
        </mxCell>
        <mxCell id="a_hzqXdRy0SeVPvStvxa-29" value="" style="verticalLabelPosition=bottom;verticalAlign=top;html=1;shape=mxgraph.flowchart.on-page_reference;" parent="1" vertex="1">
          <mxGeometry x="2778.5" y="150" width="60" height="60" as="geometry" />
        </mxCell>
        <mxCell id="a_hzqXdRy0SeVPvStvxa-30" value="1" style="text;strokeColor=none;align=center;fillColor=none;html=1;verticalAlign=middle;whiteSpace=wrap;rounded=0;" parent="1" vertex="1">
          <mxGeometry x="2778.5" y="165" width="60" height="30" as="geometry" />
        </mxCell>
        <mxCell id="a_hzqXdRy0SeVPvStvxa-31" style="edgeStyle=orthogonalEdgeStyle;rounded=0;orthogonalLoop=1;jettySize=auto;html=1;exitX=1;exitY=1;exitDx=0;exitDy=0;" parent="1" source="a_hzqXdRy0SeVPvStvxa-32" edge="1">
          <mxGeometry relative="1" as="geometry">
            <mxPoint x="2951" y="376" as="targetPoint" />
            <Array as="points">
              <mxPoint x="2931" y="376" />
              <mxPoint x="2931" y="376" />
            </Array>
          </mxGeometry>
        </mxCell>
        <mxCell id="a_hzqXdRy0SeVPvStvxa-36" value="" style="edgeStyle=orthogonalEdgeStyle;rounded=0;orthogonalLoop=1;jettySize=auto;html=1;" parent="1" source="a_hzqXdRy0SeVPvStvxa-32" target="a_hzqXdRy0SeVPvStvxa-35" edge="1">
          <mxGeometry relative="1" as="geometry" />
        </mxCell>
        <mxCell id="a_hzqXdRy0SeVPvStvxa-32" value="Output(Admin):&lt;div&gt;Statistik Klub UCL&lt;/div&gt;&lt;div&gt;&lt;div&gt;1. Tampilkan Data Klub&lt;/div&gt;&lt;div&gt;2. Tambah Klub&lt;/div&gt;&lt;div&gt;3. Update Data Klub&lt;/div&gt;&lt;div&gt;4. Hapus Data Klub&lt;/div&gt;&lt;div&gt;0. Keluar&lt;/div&gt;&lt;div&gt;Silahkan Pilih Menu:&lt;/div&gt;&lt;/div&gt;" style="shape=parallelogram;html=1;strokeWidth=2;perimeter=parallelogramPerimeter;whiteSpace=wrap;rounded=1;arcSize=12;size=0.23;" parent="1" vertex="1">
          <mxGeometry x="2691" y="270" width="235" height="130" as="geometry" />
        </mxCell>
        <mxCell id="a_hzqXdRy0SeVPvStvxa-45" value="" style="edgeStyle=orthogonalEdgeStyle;rounded=0;orthogonalLoop=1;jettySize=auto;html=1;" parent="1" source="a_hzqXdRy0SeVPvStvxa-35" target="a_hzqXdRy0SeVPvStvxa-38" edge="1">
          <mxGeometry relative="1" as="geometry" />
        </mxCell>
        <mxCell id="a_hzqXdRy0SeVPvStvxa-61" value="" style="edgeStyle=orthogonalEdgeStyle;rounded=0;orthogonalLoop=1;jettySize=auto;html=1;" parent="1" source="a_hzqXdRy0SeVPvStvxa-35" target="a_hzqXdRy0SeVPvStvxa-59" edge="1">
          <mxGeometry relative="1" as="geometry" />
        </mxCell>
        <mxCell id="a_hzqXdRy0SeVPvStvxa-35" value="Pilihan 1?" style="strokeWidth=2;html=1;shape=mxgraph.flowchart.decision;whiteSpace=wrap;" parent="1" vertex="1">
          <mxGeometry x="2747.75" y="460" width="121.5" height="120" as="geometry" />
        </mxCell>
        <mxCell id="a_hzqXdRy0SeVPvStvxa-46" value="" style="edgeStyle=orthogonalEdgeStyle;rounded=0;orthogonalLoop=1;jettySize=auto;html=1;" parent="1" source="a_hzqXdRy0SeVPvStvxa-38" target="a_hzqXdRy0SeVPvStvxa-39" edge="1">
          <mxGeometry relative="1" as="geometry" />
        </mxCell>
        <mxCell id="a_hzqXdRy0SeVPvStvxa-70" value="" style="edgeStyle=orthogonalEdgeStyle;rounded=0;orthogonalLoop=1;jettySize=auto;html=1;" parent="1" source="a_hzqXdRy0SeVPvStvxa-38" target="a_hzqXdRy0SeVPvStvxa-68" edge="1">
          <mxGeometry relative="1" as="geometry" />
        </mxCell>
        <mxCell id="a_hzqXdRy0SeVPvStvxa-38" value="Pilihan 2?" style="strokeWidth=2;html=1;shape=mxgraph.flowchart.decision;whiteSpace=wrap;" parent="1" vertex="1">
          <mxGeometry x="3020" y="460" width="121.5" height="120" as="geometry" />
        </mxCell>
        <mxCell id="a_hzqXdRy0SeVPvStvxa-47" value="" style="edgeStyle=orthogonalEdgeStyle;rounded=0;orthogonalLoop=1;jettySize=auto;html=1;" parent="1" source="a_hzqXdRy0SeVPvStvxa-39" target="a_hzqXdRy0SeVPvStvxa-40" edge="1">
          <mxGeometry relative="1" as="geometry" />
        </mxCell>
        <mxCell id="a_hzqXdRy0SeVPvStvxa-73" value="" style="edgeStyle=orthogonalEdgeStyle;rounded=0;orthogonalLoop=1;jettySize=auto;html=1;" parent="1" source="a_hzqXdRy0SeVPvStvxa-39" target="a_hzqXdRy0SeVPvStvxa-72" edge="1">
          <mxGeometry relative="1" as="geometry" />
        </mxCell>
        <mxCell id="a_hzqXdRy0SeVPvStvxa-39" value="Pilihan 3?" style="strokeWidth=2;html=1;shape=mxgraph.flowchart.decision;whiteSpace=wrap;" parent="1" vertex="1">
          <mxGeometry x="3246" y="460" width="121.5" height="120" as="geometry" />
        </mxCell>
        <mxCell id="a_hzqXdRy0SeVPvStvxa-48" value="" style="edgeStyle=orthogonalEdgeStyle;rounded=0;orthogonalLoop=1;jettySize=auto;html=1;" parent="1" source="a_hzqXdRy0SeVPvStvxa-40" target="a_hzqXdRy0SeVPvStvxa-41" edge="1">
          <mxGeometry relative="1" as="geometry" />
        </mxCell>
        <mxCell id="a_hzqXdRy0SeVPvStvxa-86" value="" style="edgeStyle=orthogonalEdgeStyle;rounded=0;orthogonalLoop=1;jettySize=auto;html=1;" parent="1" source="a_hzqXdRy0SeVPvStvxa-40" target="a_hzqXdRy0SeVPvStvxa-81" edge="1">
          <mxGeometry relative="1" as="geometry" />
        </mxCell>
        <mxCell id="a_hzqXdRy0SeVPvStvxa-40" value="Pilihan 4?" style="strokeWidth=2;html=1;shape=mxgraph.flowchart.decision;whiteSpace=wrap;" parent="1" vertex="1">
          <mxGeometry x="3480" y="460" width="121.5" height="120" as="geometry" />
        </mxCell>
        <mxCell id="a_hzqXdRy0SeVPvStvxa-103" value="" style="edgeStyle=orthogonalEdgeStyle;rounded=0;orthogonalLoop=1;jettySize=auto;html=1;" parent="1" source="a_hzqXdRy0SeVPvStvxa-41" target="a_hzqXdRy0SeVPvStvxa-102" edge="1">
          <mxGeometry relative="1" as="geometry" />
        </mxCell>
        <mxCell id="yOSMcTYDRqUJQmrgSBVF-35" value="" style="edgeStyle=orthogonalEdgeStyle;rounded=0;orthogonalLoop=1;jettySize=auto;html=1;" parent="1" source="a_hzqXdRy0SeVPvStvxa-41" target="yOSMcTYDRqUJQmrgSBVF-34" edge="1">
          <mxGeometry relative="1" as="geometry" />
        </mxCell>
        <mxCell id="a_hzqXdRy0SeVPvStvxa-41" value="Pilihan 0?" style="strokeWidth=2;html=1;shape=mxgraph.flowchart.decision;whiteSpace=wrap;" parent="1" vertex="1">
          <mxGeometry x="3698.75" y="460" width="121.5" height="120" as="geometry" />
        </mxCell>
        <mxCell id="a_hzqXdRy0SeVPvStvxa-50" value="FALSE" style="text;strokeColor=none;align=center;fillColor=none;html=1;verticalAlign=middle;whiteSpace=wrap;rounded=0;" parent="1" vertex="1">
          <mxGeometry x="2880" y="490" width="60" height="30" as="geometry" />
        </mxCell>
        <mxCell id="a_hzqXdRy0SeVPvStvxa-51" value="FALSE" style="text;strokeColor=none;align=center;fillColor=none;html=1;verticalAlign=middle;whiteSpace=wrap;rounded=0;" parent="1" vertex="1">
          <mxGeometry x="3150" y="490" width="60" height="30" as="geometry" />
        </mxCell>
        <mxCell id="a_hzqXdRy0SeVPvStvxa-52" value="FALSE" style="text;strokeColor=none;align=center;fillColor=none;html=1;verticalAlign=middle;whiteSpace=wrap;rounded=0;" parent="1" vertex="1">
          <mxGeometry x="3380" y="490" width="60" height="30" as="geometry" />
        </mxCell>
        <mxCell id="a_hzqXdRy0SeVPvStvxa-53" value="FALSE" style="text;strokeColor=none;align=center;fillColor=none;html=1;verticalAlign=middle;whiteSpace=wrap;rounded=0;" parent="1" vertex="1">
          <mxGeometry x="3620" y="490" width="60" height="30" as="geometry" />
        </mxCell>
        <mxCell id="a_hzqXdRy0SeVPvStvxa-57" value="TRUE" style="text;strokeColor=none;align=center;fillColor=none;html=1;verticalAlign=middle;whiteSpace=wrap;rounded=0;" parent="1" vertex="1">
          <mxGeometry x="2800" y="590" width="60" height="30" as="geometry" />
        </mxCell>
        <mxCell id="a_hzqXdRy0SeVPvStvxa-63" style="edgeStyle=orthogonalEdgeStyle;rounded=0;orthogonalLoop=1;jettySize=auto;html=1;exitX=1;exitY=1;exitDx=0;exitDy=0;" parent="1" source="a_hzqXdRy0SeVPvStvxa-59" edge="1">
          <mxGeometry relative="1" as="geometry">
            <mxPoint x="2910" y="704.5" as="targetPoint" />
          </mxGeometry>
        </mxCell>
        <mxCell id="a_hzqXdRy0SeVPvStvxa-107" style="edgeStyle=orthogonalEdgeStyle;rounded=0;orthogonalLoop=1;jettySize=auto;html=1;exitX=0.5;exitY=1;exitDx=0;exitDy=0;" parent="1" source="a_hzqXdRy0SeVPvStvxa-59" edge="1">
          <mxGeometry relative="1" as="geometry">
            <mxPoint x="2810" y="1180" as="targetPoint" />
          </mxGeometry>
        </mxCell>
        <mxCell id="a_hzqXdRy0SeVPvStvxa-59" value="Output: Nama Tim, Statistik(Main, Menang, Seri, Kalah, Gol, Kebobolan)" style="shape=parallelogram;html=1;strokeWidth=2;perimeter=parallelogramPerimeter;whiteSpace=wrap;rounded=1;arcSize=12;size=0.23;" parent="1" vertex="1">
          <mxGeometry x="2710" y="640" width="199" height="80" as="geometry" />
        </mxCell>
        <mxCell id="a_hzqXdRy0SeVPvStvxa-95" value="" style="edgeStyle=orthogonalEdgeStyle;rounded=0;orthogonalLoop=1;jettySize=auto;html=1;" parent="1" source="a_hzqXdRy0SeVPvStvxa-68" target="a_hzqXdRy0SeVPvStvxa-94" edge="1">
          <mxGeometry relative="1" as="geometry" />
        </mxCell>
        <mxCell id="a_hzqXdRy0SeVPvStvxa-68" value="input: Nama Klub, Jmlh Main, Jmlh Menang, Seri, Kalah, Gol, Kebobolan" style="shape=parallelogram;html=1;strokeWidth=2;perimeter=parallelogramPerimeter;whiteSpace=wrap;rounded=1;arcSize=12;size=0.23;" parent="1" vertex="1">
          <mxGeometry x="2984.87" y="645" width="191.75" height="80" as="geometry" />
        </mxCell>
        <mxCell id="a_hzqXdRy0SeVPvStvxa-69" style="edgeStyle=orthogonalEdgeStyle;rounded=0;orthogonalLoop=1;jettySize=auto;html=1;exitX=1;exitY=1;exitDx=0;exitDy=0;" parent="1" edge="1">
          <mxGeometry relative="1" as="geometry">
            <mxPoint x="3050.87" y="650.2857142857144" as="targetPoint" />
            <mxPoint x="2984.87" y="650" as="sourcePoint" />
          </mxGeometry>
        </mxCell>
        <mxCell id="a_hzqXdRy0SeVPvStvxa-71" style="edgeStyle=orthogonalEdgeStyle;rounded=0;orthogonalLoop=1;jettySize=auto;html=1;exitX=1;exitY=1;exitDx=0;exitDy=0;" parent="1" source="a_hzqXdRy0SeVPvStvxa-72" edge="1">
          <mxGeometry relative="1" as="geometry">
            <mxPoint x="3406.75" y="705" as="targetPoint" />
          </mxGeometry>
        </mxCell>
        <mxCell id="a_hzqXdRy0SeVPvStvxa-75" value="" style="edgeStyle=orthogonalEdgeStyle;rounded=0;orthogonalLoop=1;jettySize=auto;html=1;" parent="1" source="a_hzqXdRy0SeVPvStvxa-72" target="a_hzqXdRy0SeVPvStvxa-74" edge="1">
          <mxGeometry relative="1" as="geometry" />
        </mxCell>
        <mxCell id="a_hzqXdRy0SeVPvStvxa-72" value="Output: Daftar Tim" style="shape=parallelogram;html=1;strokeWidth=2;perimeter=parallelogramPerimeter;whiteSpace=wrap;rounded=1;arcSize=12;size=0.23;" parent="1" vertex="1">
          <mxGeometry x="3206.75" y="640" width="199" height="80" as="geometry" />
        </mxCell>
        <mxCell id="a_hzqXdRy0SeVPvStvxa-78" value="" style="edgeStyle=orthogonalEdgeStyle;rounded=0;orthogonalLoop=1;jettySize=auto;html=1;" parent="1" source="a_hzqXdRy0SeVPvStvxa-74" target="a_hzqXdRy0SeVPvStvxa-77" edge="1">
          <mxGeometry relative="1" as="geometry" />
        </mxCell>
        <mxCell id="a_hzqXdRy0SeVPvStvxa-74" value="Ubah Data Tim yang Dipilih" style="rounded=1;whiteSpace=wrap;html=1;absoluteArcSize=1;arcSize=14;strokeWidth=2;" parent="1" vertex="1">
          <mxGeometry x="3236.25" y="780" width="140" height="85" as="geometry" />
        </mxCell>
        <mxCell id="a_hzqXdRy0SeVPvStvxa-76" style="edgeStyle=orthogonalEdgeStyle;rounded=0;orthogonalLoop=1;jettySize=auto;html=1;exitX=1;exitY=1;exitDx=0;exitDy=0;" parent="1" source="a_hzqXdRy0SeVPvStvxa-77" edge="1">
          <mxGeometry relative="1" as="geometry">
            <mxPoint x="3405.75" y="1025" as="targetPoint" />
          </mxGeometry>
        </mxCell>
        <mxCell id="a_hzqXdRy0SeVPvStvxa-93" style="edgeStyle=orthogonalEdgeStyle;rounded=0;orthogonalLoop=1;jettySize=auto;html=1;exitX=0.5;exitY=1;exitDx=0;exitDy=0;" parent="1" source="a_hzqXdRy0SeVPvStvxa-77" edge="1">
          <mxGeometry relative="1" as="geometry">
            <mxPoint x="3306" y="1180" as="targetPoint" />
          </mxGeometry>
        </mxCell>
        <mxCell id="a_hzqXdRy0SeVPvStvxa-77" value="Output: Data Klub Berhasil Diubah" style="shape=parallelogram;html=1;strokeWidth=2;perimeter=parallelogramPerimeter;whiteSpace=wrap;rounded=1;arcSize=12;size=0.23;" parent="1" vertex="1">
          <mxGeometry x="3206.75" y="950" width="199" height="80" as="geometry" />
        </mxCell>
        <mxCell id="a_hzqXdRy0SeVPvStvxa-79" style="edgeStyle=orthogonalEdgeStyle;rounded=0;orthogonalLoop=1;jettySize=auto;html=1;exitX=1;exitY=1;exitDx=0;exitDy=0;" parent="1" source="a_hzqXdRy0SeVPvStvxa-81" edge="1">
          <mxGeometry relative="1" as="geometry">
            <mxPoint x="3640.75" y="705" as="targetPoint" />
          </mxGeometry>
        </mxCell>
        <mxCell id="a_hzqXdRy0SeVPvStvxa-80" value="" style="edgeStyle=orthogonalEdgeStyle;rounded=0;orthogonalLoop=1;jettySize=auto;html=1;" parent="1" source="a_hzqXdRy0SeVPvStvxa-81" target="a_hzqXdRy0SeVPvStvxa-83" edge="1">
          <mxGeometry relative="1" as="geometry" />
        </mxCell>
        <mxCell id="a_hzqXdRy0SeVPvStvxa-81" value="Output: Daftar Tim" style="shape=parallelogram;html=1;strokeWidth=2;perimeter=parallelogramPerimeter;whiteSpace=wrap;rounded=1;arcSize=12;size=0.23;" parent="1" vertex="1">
          <mxGeometry x="3440.75" y="640" width="199" height="80" as="geometry" />
        </mxCell>
        <mxCell id="a_hzqXdRy0SeVPvStvxa-82" value="" style="edgeStyle=orthogonalEdgeStyle;rounded=0;orthogonalLoop=1;jettySize=auto;html=1;" parent="1" source="a_hzqXdRy0SeVPvStvxa-83" target="a_hzqXdRy0SeVPvStvxa-85" edge="1">
          <mxGeometry relative="1" as="geometry" />
        </mxCell>
        <mxCell id="a_hzqXdRy0SeVPvStvxa-83" value="Hapus Data Tim yang Dipilih" style="rounded=1;whiteSpace=wrap;html=1;absoluteArcSize=1;arcSize=14;strokeWidth=2;" parent="1" vertex="1">
          <mxGeometry x="3470.25" y="780" width="140" height="85" as="geometry" />
        </mxCell>
        <mxCell id="a_hzqXdRy0SeVPvStvxa-84" style="edgeStyle=orthogonalEdgeStyle;rounded=0;orthogonalLoop=1;jettySize=auto;html=1;exitX=1;exitY=1;exitDx=0;exitDy=0;" parent="1" source="a_hzqXdRy0SeVPvStvxa-85" edge="1">
          <mxGeometry relative="1" as="geometry">
            <mxPoint x="3640.75" y="1015" as="targetPoint" />
          </mxGeometry>
        </mxCell>
        <mxCell id="a_hzqXdRy0SeVPvStvxa-92" style="edgeStyle=orthogonalEdgeStyle;rounded=0;orthogonalLoop=1;jettySize=auto;html=1;exitX=0.5;exitY=1;exitDx=0;exitDy=0;entryX=0;entryY=0.25;entryDx=0;entryDy=0;" parent="1" source="a_hzqXdRy0SeVPvStvxa-85" target="a_hzqXdRy0SeVPvStvxa-32" edge="1">
          <mxGeometry relative="1" as="geometry">
            <mxPoint x="3540" y="1200" as="targetPoint" />
            <Array as="points">
              <mxPoint x="3540" y="1180" />
              <mxPoint x="2570" y="1180" />
              <mxPoint x="2570" y="313" />
            </Array>
          </mxGeometry>
        </mxCell>
        <mxCell id="a_hzqXdRy0SeVPvStvxa-85" value="Output: Data Klub Berhasil Dihapus" style="shape=parallelogram;html=1;strokeWidth=2;perimeter=parallelogramPerimeter;whiteSpace=wrap;rounded=1;arcSize=12;size=0.23;" parent="1" vertex="1">
          <mxGeometry x="3440.75" y="950" width="199" height="80" as="geometry" />
        </mxCell>
        <mxCell id="a_hzqXdRy0SeVPvStvxa-98" value="" style="edgeStyle=orthogonalEdgeStyle;rounded=0;orthogonalLoop=1;jettySize=auto;html=1;" parent="1" source="a_hzqXdRy0SeVPvStvxa-94" target="a_hzqXdRy0SeVPvStvxa-97" edge="1">
          <mxGeometry relative="1" as="geometry" />
        </mxCell>
        <mxCell id="a_hzqXdRy0SeVPvStvxa-94" value="Ubah Data Tim yang Dipilih" style="rounded=1;whiteSpace=wrap;html=1;absoluteArcSize=1;arcSize=14;strokeWidth=2;" parent="1" vertex="1">
          <mxGeometry x="3010.75" y="785" width="140" height="85" as="geometry" />
        </mxCell>
        <mxCell id="a_hzqXdRy0SeVPvStvxa-96" style="edgeStyle=orthogonalEdgeStyle;rounded=0;orthogonalLoop=1;jettySize=auto;html=1;exitX=1;exitY=1;exitDx=0;exitDy=0;" parent="1" source="a_hzqXdRy0SeVPvStvxa-97" edge="1">
          <mxGeometry relative="1" as="geometry">
            <mxPoint x="3180.75" y="1015" as="targetPoint" />
          </mxGeometry>
        </mxCell>
        <mxCell id="a_hzqXdRy0SeVPvStvxa-105" style="edgeStyle=orthogonalEdgeStyle;rounded=0;orthogonalLoop=1;jettySize=auto;html=1;exitX=0.5;exitY=1;exitDx=0;exitDy=0;" parent="1" source="a_hzqXdRy0SeVPvStvxa-97" edge="1">
          <mxGeometry relative="1" as="geometry">
            <mxPoint x="3080" y="1180" as="targetPoint" />
          </mxGeometry>
        </mxCell>
        <mxCell id="a_hzqXdRy0SeVPvStvxa-97" value="Output: Data Klub Berhasil Ditambah" style="shape=parallelogram;html=1;strokeWidth=2;perimeter=parallelogramPerimeter;whiteSpace=wrap;rounded=1;arcSize=12;size=0.23;" parent="1" vertex="1">
          <mxGeometry x="2980.75" y="950" width="199" height="80" as="geometry" />
        </mxCell>
        <mxCell id="a_hzqXdRy0SeVPvStvxa-101" style="edgeStyle=orthogonalEdgeStyle;rounded=0;orthogonalLoop=1;jettySize=auto;html=1;exitX=1;exitY=1;exitDx=0;exitDy=0;" parent="1" edge="1">
          <mxGeometry relative="1" as="geometry">
            <mxPoint x="4070" y="515" as="targetPoint" />
            <mxPoint x="4031.78861788618" y="515.0406504065045" as="sourcePoint" />
          </mxGeometry>
        </mxCell>
        <mxCell id="a_hzqXdRy0SeVPvStvxa-104" style="edgeStyle=orthogonalEdgeStyle;rounded=0;orthogonalLoop=1;jettySize=auto;html=1;exitX=1;exitY=0.5;exitDx=0;exitDy=0;entryX=1;entryY=0.25;entryDx=0;entryDy=0;" parent="1" source="a_hzqXdRy0SeVPvStvxa-102" target="a_hzqXdRy0SeVPvStvxa-32" edge="1">
          <mxGeometry relative="1" as="geometry">
            <Array as="points">
              <mxPoint x="4160" y="520" />
              <mxPoint x="4160" y="307" />
            </Array>
          </mxGeometry>
        </mxCell>
        <mxCell id="a_hzqXdRy0SeVPvStvxa-102" value="Output: Pilihan Tidak Valid" style="shape=parallelogram;html=1;strokeWidth=2;perimeter=parallelogramPerimeter;whiteSpace=wrap;rounded=1;arcSize=12;size=0.23;" parent="1" vertex="1">
          <mxGeometry x="3870" y="480" width="199" height="80" as="geometry" />
        </mxCell>
        <mxCell id="yOSMcTYDRqUJQmrgSBVF-3" value="" style="edgeStyle=orthogonalEdgeStyle;rounded=0;orthogonalLoop=1;jettySize=auto;html=1;" parent="1" source="tgl8hg7c3ychdEdT68j1-2" target="yOSMcTYDRqUJQmrgSBVF-2" edge="1">
          <mxGeometry relative="1" as="geometry" />
        </mxCell>
        <mxCell id="tgl8hg7c3ychdEdT68j1-2" value="START" style="strokeWidth=2;html=1;shape=mxgraph.flowchart.terminator;whiteSpace=wrap;" parent="1" vertex="1">
          <mxGeometry x="715" y="75" width="100" height="60" as="geometry" />
        </mxCell>
        <mxCell id="tgl8hg7c3ychdEdT68j1-3" style="edgeStyle=orthogonalEdgeStyle;rounded=0;orthogonalLoop=1;jettySize=auto;html=1;exitX=1;exitY=1;exitDx=0;exitDy=0;" parent="1" source="tgl8hg7c3ychdEdT68j1-5" edge="1">
          <mxGeometry relative="1" as="geometry">
            <mxPoint x="905" y="371.28571428571445" as="targetPoint" />
          </mxGeometry>
        </mxCell>
        <mxCell id="tgl8hg7c3ychdEdT68j1-26" value="" style="edgeStyle=orthogonalEdgeStyle;rounded=0;orthogonalLoop=1;jettySize=auto;html=1;" parent="1" source="tgl8hg7c3ychdEdT68j1-5" target="tgl8hg7c3ychdEdT68j1-24" edge="1">
          <mxGeometry relative="1" as="geometry" />
        </mxCell>
        <mxCell id="tgl8hg7c3ychdEdT68j1-5" value="Output:&amp;nbsp;&lt;span style=&quot;white-space-collapse: preserve; background-color: transparent; color: light-dark(rgb(0, 0, 0), rgb(255, 255, 255));&quot;&gt;Selamat Datang di Sistem Data Statistik Klub UCL&lt;/span&gt;" style="shape=parallelogram;html=1;strokeWidth=2;perimeter=parallelogramPerimeter;whiteSpace=wrap;rounded=1;arcSize=12;size=0.23;" parent="1" vertex="1">
          <mxGeometry x="647.5" y="290" width="235" height="100" as="geometry" />
        </mxCell>
        <mxCell id="tgl8hg7c3ychdEdT68j1-29" value="" style="edgeStyle=orthogonalEdgeStyle;rounded=0;orthogonalLoop=1;jettySize=auto;html=1;" parent="1" source="tgl8hg7c3ychdEdT68j1-24" target="tgl8hg7c3ychdEdT68j1-28" edge="1">
          <mxGeometry relative="1" as="geometry" />
        </mxCell>
        <mxCell id="tgl8hg7c3ychdEdT68j1-24" value="pilih main menu&lt;div&gt;1.&amp;nbsp;Register&lt;/div&gt;&lt;div&gt;2. Login&lt;/div&gt;&lt;div&gt;0. Keluar&lt;/div&gt;" style="shape=parallelogram;html=1;strokeWidth=2;perimeter=parallelogramPerimeter;whiteSpace=wrap;rounded=1;arcSize=12;size=0.23;" parent="1" vertex="1">
          <mxGeometry x="647.5" y="460" width="235" height="100" as="geometry" />
        </mxCell>
        <mxCell id="tgl8hg7c3ychdEdT68j1-25" style="edgeStyle=orthogonalEdgeStyle;rounded=0;orthogonalLoop=1;jettySize=auto;html=1;exitX=1;exitY=1;exitDx=0;exitDy=0;" parent="1" edge="1">
          <mxGeometry relative="1" as="geometry">
            <mxPoint x="721" y="470.28571428571445" as="targetPoint" />
            <mxPoint x="655" y="470" as="sourcePoint" />
          </mxGeometry>
        </mxCell>
        <mxCell id="tgl8hg7c3ychdEdT68j1-32" value="" style="edgeStyle=orthogonalEdgeStyle;rounded=0;orthogonalLoop=1;jettySize=auto;html=1;" parent="1" source="tgl8hg7c3ychdEdT68j1-28" target="tgl8hg7c3ychdEdT68j1-30" edge="1">
          <mxGeometry relative="1" as="geometry" />
        </mxCell>
        <mxCell id="tgl8hg7c3ychdEdT68j1-45" value="" style="edgeStyle=orthogonalEdgeStyle;rounded=0;orthogonalLoop=1;jettySize=auto;html=1;" parent="1" source="tgl8hg7c3ychdEdT68j1-28" target="tgl8hg7c3ychdEdT68j1-44" edge="1">
          <mxGeometry relative="1" as="geometry" />
        </mxCell>
        <mxCell id="tgl8hg7c3ychdEdT68j1-28" value="Opsi 1?" style="strokeWidth=2;html=1;shape=mxgraph.flowchart.decision;whiteSpace=wrap;" parent="1" vertex="1">
          <mxGeometry x="685" y="630" width="160" height="150" as="geometry" />
        </mxCell>
        <mxCell id="tgl8hg7c3ychdEdT68j1-38" value="" style="edgeStyle=orthogonalEdgeStyle;rounded=0;orthogonalLoop=1;jettySize=auto;html=1;" parent="1" source="tgl8hg7c3ychdEdT68j1-30" target="tgl8hg7c3ychdEdT68j1-34" edge="1">
          <mxGeometry relative="1" as="geometry" />
        </mxCell>
        <mxCell id="tgl8hg7c3ychdEdT68j1-30" value="input username dan password" style="shape=parallelogram;html=1;strokeWidth=2;perimeter=parallelogramPerimeter;whiteSpace=wrap;rounded=1;arcSize=12;size=0.23;" parent="1" vertex="1">
          <mxGeometry x="647.5" y="850" width="235" height="100" as="geometry" />
        </mxCell>
        <mxCell id="tgl8hg7c3ychdEdT68j1-31" style="edgeStyle=orthogonalEdgeStyle;rounded=0;orthogonalLoop=1;jettySize=auto;html=1;exitX=1;exitY=1;exitDx=0;exitDy=0;" parent="1" edge="1">
          <mxGeometry relative="1" as="geometry">
            <mxPoint x="713.5" y="860.2857142857147" as="targetPoint" />
            <mxPoint x="647.5" y="860" as="sourcePoint" />
          </mxGeometry>
        </mxCell>
        <mxCell id="tgl8hg7c3ychdEdT68j1-41" value="" style="edgeStyle=orthogonalEdgeStyle;rounded=0;orthogonalLoop=1;jettySize=auto;html=1;" parent="1" source="tgl8hg7c3ychdEdT68j1-34" target="tgl8hg7c3ychdEdT68j1-40" edge="1">
          <mxGeometry relative="1" as="geometry" />
        </mxCell>
        <mxCell id="yOSMcTYDRqUJQmrgSBVF-16" value="" style="edgeStyle=orthogonalEdgeStyle;rounded=0;orthogonalLoop=1;jettySize=auto;html=1;" parent="1" source="tgl8hg7c3ychdEdT68j1-34" target="yOSMcTYDRqUJQmrgSBVF-15" edge="1">
          <mxGeometry relative="1" as="geometry" />
        </mxCell>
        <mxCell id="tgl8hg7c3ychdEdT68j1-34" value="Login Valid?" style="strokeWidth=2;html=1;shape=mxgraph.flowchart.decision;whiteSpace=wrap;" parent="1" vertex="1">
          <mxGeometry x="685" y="1010" width="160" height="150" as="geometry" />
        </mxCell>
        <mxCell id="tgl8hg7c3ychdEdT68j1-37" value="TRUE" style="text;strokeColor=none;align=center;fillColor=none;html=1;verticalAlign=middle;whiteSpace=wrap;rounded=0;" parent="1" vertex="1">
          <mxGeometry x="760" y="1215" width="60" height="30" as="geometry" />
        </mxCell>
        <mxCell id="tgl8hg7c3ychdEdT68j1-39" style="edgeStyle=orthogonalEdgeStyle;rounded=0;orthogonalLoop=1;jettySize=auto;html=1;exitX=1;exitY=1;exitDx=0;exitDy=0;" parent="1" source="tgl8hg7c3ychdEdT68j1-40" edge="1">
          <mxGeometry relative="1" as="geometry">
            <mxPoint x="615" y="1116.2857142857147" as="targetPoint" />
          </mxGeometry>
        </mxCell>
        <mxCell id="tgl8hg7c3ychdEdT68j1-42" style="edgeStyle=orthogonalEdgeStyle;rounded=0;orthogonalLoop=1;jettySize=auto;html=1;exitX=0.5;exitY=0;exitDx=0;exitDy=0;entryX=0;entryY=0.5;entryDx=0;entryDy=0;" parent="1" source="tgl8hg7c3ychdEdT68j1-40" target="tgl8hg7c3ychdEdT68j1-24" edge="1">
          <mxGeometry relative="1" as="geometry">
            <Array as="points">
              <mxPoint x="467.5" y="510" />
            </Array>
          </mxGeometry>
        </mxCell>
        <mxCell id="tgl8hg7c3ychdEdT68j1-40" value="Output:&amp;nbsp;Username atau Password Salah KINGGG! Coba Lagi KINGG!." style="shape=parallelogram;html=1;strokeWidth=2;perimeter=parallelogramPerimeter;whiteSpace=wrap;rounded=1;arcSize=12;size=0.23;" parent="1" vertex="1">
          <mxGeometry x="351" y="1035" width="235" height="100" as="geometry" />
        </mxCell>
        <mxCell id="tgl8hg7c3ychdEdT68j1-43" value="FALSE" style="text;strokeColor=none;align=center;fillColor=none;html=1;verticalAlign=middle;whiteSpace=wrap;rounded=0;" parent="1" vertex="1">
          <mxGeometry x="607.5" y="1060" width="60" height="30" as="geometry" />
        </mxCell>
        <mxCell id="tgl8hg7c3ychdEdT68j1-48" value="" style="edgeStyle=orthogonalEdgeStyle;rounded=0;orthogonalLoop=1;jettySize=auto;html=1;" parent="1" source="tgl8hg7c3ychdEdT68j1-44" target="tgl8hg7c3ychdEdT68j1-46" edge="1">
          <mxGeometry relative="1" as="geometry" />
        </mxCell>
        <mxCell id="tgl8hg7c3ychdEdT68j1-56" value="" style="edgeStyle=orthogonalEdgeStyle;rounded=0;orthogonalLoop=1;jettySize=auto;html=1;" parent="1" source="tgl8hg7c3ychdEdT68j1-44" target="tgl8hg7c3ychdEdT68j1-55" edge="1">
          <mxGeometry relative="1" as="geometry" />
        </mxCell>
        <mxCell id="tgl8hg7c3ychdEdT68j1-44" value="Opsi 2?" style="strokeWidth=2;html=1;shape=mxgraph.flowchart.decision;whiteSpace=wrap;" parent="1" vertex="1">
          <mxGeometry x="1057.5" y="630" width="160" height="150" as="geometry" />
        </mxCell>
        <mxCell id="tgl8hg7c3ychdEdT68j1-46" value="input username" style="shape=parallelogram;html=1;strokeWidth=2;perimeter=parallelogramPerimeter;whiteSpace=wrap;rounded=1;arcSize=12;size=0.23;" parent="1" vertex="1">
          <mxGeometry x="1020" y="850" width="235" height="100" as="geometry" />
        </mxCell>
        <mxCell id="tgl8hg7c3ychdEdT68j1-47" style="edgeStyle=orthogonalEdgeStyle;rounded=0;orthogonalLoop=1;jettySize=auto;html=1;exitX=1;exitY=1;exitDx=0;exitDy=0;" parent="1" edge="1">
          <mxGeometry relative="1" as="geometry">
            <mxPoint x="1086" y="860.2857142857147" as="targetPoint" />
            <mxPoint x="1020" y="860" as="sourcePoint" />
          </mxGeometry>
        </mxCell>
        <mxCell id="tgl8hg7c3ychdEdT68j1-53" value="" style="edgeStyle=orthogonalEdgeStyle;rounded=0;orthogonalLoop=1;jettySize=auto;html=1;" parent="1" source="tgl8hg7c3ychdEdT68j1-49" target="tgl8hg7c3ychdEdT68j1-52" edge="1">
          <mxGeometry relative="1" as="geometry" />
        </mxCell>
        <mxCell id="tgl8hg7c3ychdEdT68j1-49" value="Tambah User Baru" style="rounded=1;whiteSpace=wrap;html=1;absoluteArcSize=1;arcSize=14;strokeWidth=2;" parent="1" vertex="1">
          <mxGeometry x="1067.5" y="1400" width="140" height="85" as="geometry" />
        </mxCell>
        <mxCell id="tgl8hg7c3ychdEdT68j1-51" style="edgeStyle=orthogonalEdgeStyle;rounded=0;orthogonalLoop=1;jettySize=auto;html=1;exitX=1;exitY=1;exitDx=0;exitDy=0;" parent="1" source="tgl8hg7c3ychdEdT68j1-52" edge="1">
          <mxGeometry relative="1" as="geometry">
            <mxPoint x="1314.5" y="1676.2857142857147" as="targetPoint" />
          </mxGeometry>
        </mxCell>
        <mxCell id="tgl8hg7c3ychdEdT68j1-54" style="edgeStyle=orthogonalEdgeStyle;rounded=0;orthogonalLoop=1;jettySize=auto;html=1;exitX=1;exitY=0.5;exitDx=0;exitDy=0;entryX=1;entryY=0.25;entryDx=0;entryDy=0;" parent="1" source="tgl8hg7c3ychdEdT68j1-52" target="tgl8hg7c3ychdEdT68j1-24" edge="1">
          <mxGeometry relative="1" as="geometry">
            <Array as="points">
              <mxPoint x="1910" y="1645" />
              <mxPoint x="1910" y="488" />
            </Array>
          </mxGeometry>
        </mxCell>
        <mxCell id="tgl8hg7c3ychdEdT68j1-52" value="Output: &lt;span style=&quot;white-space-collapse: preserve;&quot;&gt;Registrasi berhasil! Silahkan Login&lt;/span&gt;" style="shape=parallelogram;html=1;strokeWidth=2;perimeter=parallelogramPerimeter;whiteSpace=wrap;rounded=1;arcSize=12;size=0.23;" parent="1" vertex="1">
          <mxGeometry x="1020" y="1595" width="235" height="100" as="geometry" />
        </mxCell>
        <mxCell id="tgl8hg7c3ychdEdT68j1-71" value="" style="edgeStyle=orthogonalEdgeStyle;rounded=0;orthogonalLoop=1;jettySize=auto;html=1;" parent="1" source="tgl8hg7c3ychdEdT68j1-55" target="tgl8hg7c3ychdEdT68j1-70" edge="1">
          <mxGeometry relative="1" as="geometry" />
        </mxCell>
        <mxCell id="yOSMcTYDRqUJQmrgSBVF-32" value="" style="edgeStyle=orthogonalEdgeStyle;rounded=0;orthogonalLoop=1;jettySize=auto;html=1;" parent="1" source="tgl8hg7c3ychdEdT68j1-55" target="yOSMcTYDRqUJQmrgSBVF-31" edge="1">
          <mxGeometry relative="1" as="geometry" />
        </mxCell>
        <mxCell id="tgl8hg7c3ychdEdT68j1-55" value="Opsi 0?" style="strokeWidth=2;html=1;shape=mxgraph.flowchart.decision;whiteSpace=wrap;" parent="1" vertex="1">
          <mxGeometry x="1396" y="630" width="160" height="150" as="geometry" />
        </mxCell>
        <mxCell id="tgl8hg7c3ychdEdT68j1-69" style="edgeStyle=orthogonalEdgeStyle;rounded=0;orthogonalLoop=1;jettySize=auto;html=1;exitX=1;exitY=1;exitDx=0;exitDy=0;" parent="1" source="tgl8hg7c3ychdEdT68j1-70" edge="1">
          <mxGeometry relative="1" as="geometry">
            <mxPoint x="1867.5" y="736.2857142857147" as="targetPoint" />
          </mxGeometry>
        </mxCell>
        <mxCell id="tgl8hg7c3ychdEdT68j1-72" style="edgeStyle=orthogonalEdgeStyle;rounded=0;orthogonalLoop=1;jettySize=auto;html=1;exitX=0.5;exitY=0;exitDx=0;exitDy=0;entryX=1;entryY=0.25;entryDx=0;entryDy=0;" parent="1" source="tgl8hg7c3ychdEdT68j1-70" target="tgl8hg7c3ychdEdT68j1-24" edge="1">
          <mxGeometry relative="1" as="geometry">
            <Array as="points">
              <mxPoint x="1727.5" y="488" />
            </Array>
          </mxGeometry>
        </mxCell>
        <mxCell id="tgl8hg7c3ychdEdT68j1-70" value="Output: Pilihan&lt;span style=&quot;white-space-collapse: preserve;&quot;&gt; tidak valid. Coba lagi&lt;/span&gt;" style="shape=parallelogram;html=1;strokeWidth=2;perimeter=parallelogramPerimeter;whiteSpace=wrap;rounded=1;arcSize=12;size=0.23;" parent="1" vertex="1">
          <mxGeometry x="1610" y="655" width="235" height="100" as="geometry" />
        </mxCell>
        <mxCell id="yOSMcTYDRqUJQmrgSBVF-5" value="" style="edgeStyle=orthogonalEdgeStyle;rounded=0;orthogonalLoop=1;jettySize=auto;html=1;" parent="1" source="yOSMcTYDRqUJQmrgSBVF-1" target="tgl8hg7c3ychdEdT68j1-5" edge="1">
          <mxGeometry relative="1" as="geometry" />
        </mxCell>
        <mxCell id="yOSMcTYDRqUJQmrgSBVF-1" value="" style="verticalLabelPosition=bottom;verticalAlign=top;html=1;shape=mxgraph.flowchart.on-page_reference;" parent="1" vertex="1">
          <mxGeometry x="735" y="180" width="60" height="60" as="geometry" />
        </mxCell>
        <mxCell id="yOSMcTYDRqUJQmrgSBVF-2" value="3" style="text;strokeColor=none;align=center;fillColor=none;html=1;verticalAlign=middle;whiteSpace=wrap;rounded=0;" parent="1" vertex="1">
          <mxGeometry x="735" y="195" width="60" height="30" as="geometry" />
        </mxCell>
        <mxCell id="yOSMcTYDRqUJQmrgSBVF-8" value="" style="edgeStyle=orthogonalEdgeStyle;rounded=0;orthogonalLoop=1;jettySize=auto;html=1;" parent="1" source="tgl8hg7c3ychdEdT68j1-46" target="yOSMcTYDRqUJQmrgSBVF-7" edge="1">
          <mxGeometry relative="1" as="geometry">
            <mxPoint x="1138" y="950" as="sourcePoint" />
            <mxPoint x="1138" y="1215" as="targetPoint" />
          </mxGeometry>
        </mxCell>
        <mxCell id="yOSMcTYDRqUJQmrgSBVF-13" value="" style="edgeStyle=orthogonalEdgeStyle;rounded=0;orthogonalLoop=1;jettySize=auto;html=1;" parent="1" source="yOSMcTYDRqUJQmrgSBVF-7" target="yOSMcTYDRqUJQmrgSBVF-12" edge="1">
          <mxGeometry relative="1" as="geometry" />
        </mxCell>
        <mxCell id="yOSMcTYDRqUJQmrgSBVF-24" value="" style="edgeStyle=orthogonalEdgeStyle;rounded=0;orthogonalLoop=1;jettySize=auto;html=1;" parent="1" source="yOSMcTYDRqUJQmrgSBVF-7" target="yOSMcTYDRqUJQmrgSBVF-22" edge="1">
          <mxGeometry relative="1" as="geometry" />
        </mxCell>
        <mxCell id="yOSMcTYDRqUJQmrgSBVF-7" value="Username ada?" style="strokeWidth=2;html=1;shape=mxgraph.flowchart.decision;whiteSpace=wrap;" parent="1" vertex="1">
          <mxGeometry x="1057.5" y="1000" width="160" height="150" as="geometry" />
        </mxCell>
        <mxCell id="yOSMcTYDRqUJQmrgSBVF-11" style="edgeStyle=orthogonalEdgeStyle;rounded=0;orthogonalLoop=1;jettySize=auto;html=1;exitX=1;exitY=1;exitDx=0;exitDy=0;" parent="1" source="yOSMcTYDRqUJQmrgSBVF-12" edge="1">
          <mxGeometry relative="1" as="geometry">
            <mxPoint x="1604.75" y="1106.2857142857144" as="targetPoint" />
          </mxGeometry>
        </mxCell>
        <mxCell id="yOSMcTYDRqUJQmrgSBVF-12" value="&lt;span style=&quot;font-family: &amp;quot;Google Sans Flex&amp;quot;, &amp;quot;Google Sans&amp;quot;, &amp;quot;Helvetica Neue&amp;quot;, sans-serif; font-size: 16px; font-variant-ligatures: none; text-align: start; white-space-collapse: preserve; background-color: rgb(27, 28, 29);&quot;&gt;Output: Username sudah ada, coba yang lain!&lt;/span&gt;" style="shape=parallelogram;html=1;strokeWidth=2;perimeter=parallelogramPerimeter;whiteSpace=wrap;rounded=1;arcSize=12;size=0.23;" parent="1" vertex="1">
          <mxGeometry x="1347.25" y="1025" width="235" height="100" as="geometry" />
        </mxCell>
        <mxCell id="yOSMcTYDRqUJQmrgSBVF-26" value="" style="edgeStyle=orthogonalEdgeStyle;rounded=0;orthogonalLoop=1;jettySize=auto;html=1;" parent="1" source="yOSMcTYDRqUJQmrgSBVF-15" target="yOSMcTYDRqUJQmrgSBVF-19" edge="1">
          <mxGeometry relative="1" as="geometry" />
        </mxCell>
        <mxCell id="yOSMcTYDRqUJQmrgSBVF-30" value="" style="edgeStyle=orthogonalEdgeStyle;rounded=0;orthogonalLoop=1;jettySize=auto;html=1;" parent="1" source="yOSMcTYDRqUJQmrgSBVF-15" target="yOSMcTYDRqUJQmrgSBVF-29" edge="1">
          <mxGeometry relative="1" as="geometry" />
        </mxCell>
        <mxCell id="yOSMcTYDRqUJQmrgSBVF-15" value="Admin?" style="strokeWidth=2;html=1;shape=mxgraph.flowchart.decision;whiteSpace=wrap;" parent="1" vertex="1">
          <mxGeometry x="685" y="1280" width="160" height="150" as="geometry" />
        </mxCell>
        <mxCell id="yOSMcTYDRqUJQmrgSBVF-18" value="" style="verticalLabelPosition=bottom;verticalAlign=top;html=1;shape=mxgraph.flowchart.on-page_reference;" parent="1" vertex="1">
          <mxGeometry x="735" y="1615" width="60" height="60" as="geometry" />
        </mxCell>
        <mxCell id="yOSMcTYDRqUJQmrgSBVF-19" value="1" style="text;strokeColor=none;align=center;fillColor=none;html=1;verticalAlign=middle;whiteSpace=wrap;rounded=0;" parent="1" vertex="1">
          <mxGeometry x="735" y="1630" width="60" height="30" as="geometry" />
        </mxCell>
        <mxCell id="yOSMcTYDRqUJQmrgSBVF-25" value="" style="edgeStyle=orthogonalEdgeStyle;rounded=0;orthogonalLoop=1;jettySize=auto;html=1;" parent="1" source="yOSMcTYDRqUJQmrgSBVF-22" target="tgl8hg7c3ychdEdT68j1-49" edge="1">
          <mxGeometry relative="1" as="geometry" />
        </mxCell>
        <mxCell id="yOSMcTYDRqUJQmrgSBVF-22" value="input password" style="shape=parallelogram;html=1;strokeWidth=2;perimeter=parallelogramPerimeter;whiteSpace=wrap;rounded=1;arcSize=12;size=0.23;" parent="1" vertex="1">
          <mxGeometry x="1020" y="1215" width="235" height="100" as="geometry" />
        </mxCell>
        <mxCell id="yOSMcTYDRqUJQmrgSBVF-23" style="edgeStyle=orthogonalEdgeStyle;rounded=0;orthogonalLoop=1;jettySize=auto;html=1;exitX=1;exitY=1;exitDx=0;exitDy=0;" parent="1" edge="1">
          <mxGeometry relative="1" as="geometry">
            <mxPoint x="1086" y="1225.2857142857147" as="targetPoint" />
            <mxPoint x="1020" y="1225" as="sourcePoint" />
          </mxGeometry>
        </mxCell>
        <mxCell id="yOSMcTYDRqUJQmrgSBVF-27" value="TRUE" style="text;strokeColor=none;align=center;fillColor=none;html=1;verticalAlign=middle;whiteSpace=wrap;rounded=0;" parent="1" vertex="1">
          <mxGeometry x="760" y="1500" width="60" height="30" as="geometry" />
        </mxCell>
        <mxCell id="yOSMcTYDRqUJQmrgSBVF-28" value="" style="verticalLabelPosition=bottom;verticalAlign=top;html=1;shape=mxgraph.flowchart.on-page_reference;" parent="1" vertex="1">
          <mxGeometry x="438.5" y="1325" width="60" height="60" as="geometry" />
        </mxCell>
        <mxCell id="yOSMcTYDRqUJQmrgSBVF-29" value="2" style="text;strokeColor=none;align=center;fillColor=none;html=1;verticalAlign=middle;whiteSpace=wrap;rounded=0;" parent="1" vertex="1">
          <mxGeometry x="438.5" y="1340" width="60" height="30" as="geometry" />
        </mxCell>
        <mxCell id="yOSMcTYDRqUJQmrgSBVF-31" value="END" style="strokeWidth=2;html=1;shape=mxgraph.flowchart.terminator;whiteSpace=wrap;" parent="1" vertex="1">
          <mxGeometry x="1426" y="870" width="100" height="60" as="geometry" />
        </mxCell>
        <mxCell id="yOSMcTYDRqUJQmrgSBVF-33" value="" style="verticalLabelPosition=bottom;verticalAlign=top;html=1;shape=mxgraph.flowchart.on-page_reference;" parent="1" vertex="1">
          <mxGeometry x="3729.5" y="655" width="60" height="60" as="geometry" />
        </mxCell>
        <mxCell id="yOSMcTYDRqUJQmrgSBVF-34" value="3" style="text;strokeColor=none;align=center;fillColor=none;html=1;verticalAlign=middle;whiteSpace=wrap;rounded=0;" parent="1" vertex="1">
          <mxGeometry x="3729.5" y="670" width="60" height="30" as="geometry" />
        </mxCell>
        <mxCell id="yOSMcTYDRqUJQmrgSBVF-37" value="FALSE" style="text;strokeColor=none;align=center;fillColor=none;html=1;verticalAlign=middle;whiteSpace=wrap;rounded=0;" parent="1" vertex="1">
          <mxGeometry x="570" y="1325" width="60" height="30" as="geometry" />
        </mxCell>
        <mxCell id="yOSMcTYDRqUJQmrgSBVF-38" style="edgeStyle=orthogonalEdgeStyle;rounded=0;orthogonalLoop=1;jettySize=auto;html=1;exitX=0.5;exitY=1;exitDx=0;exitDy=0;exitPerimeter=0;entryX=0.5;entryY=0;entryDx=0;entryDy=0;" parent="1" source="yOSMcTYDRqUJQmrgSBVF-39" target="yOSMcTYDRqUJQmrgSBVF-43" edge="1">
          <mxGeometry relative="1" as="geometry" />
        </mxCell>
        <mxCell id="yOSMcTYDRqUJQmrgSBVF-39" value="" style="verticalLabelPosition=bottom;verticalAlign=top;html=1;shape=mxgraph.flowchart.on-page_reference;" parent="1" vertex="1">
          <mxGeometry x="4628.5" y="180" width="60" height="60" as="geometry" />
        </mxCell>
        <mxCell id="yOSMcTYDRqUJQmrgSBVF-40" value="1" style="text;strokeColor=none;align=center;fillColor=none;html=1;verticalAlign=middle;whiteSpace=wrap;rounded=0;" parent="1" vertex="1">
          <mxGeometry x="4628.5" y="195" width="60" height="30" as="geometry" />
        </mxCell>
        <mxCell id="yOSMcTYDRqUJQmrgSBVF-41" style="edgeStyle=orthogonalEdgeStyle;rounded=0;orthogonalLoop=1;jettySize=auto;html=1;exitX=1;exitY=1;exitDx=0;exitDy=0;" parent="1" source="yOSMcTYDRqUJQmrgSBVF-43" edge="1">
          <mxGeometry relative="1" as="geometry">
            <mxPoint x="4801" y="406" as="targetPoint" />
            <Array as="points">
              <mxPoint x="4781" y="406" />
              <mxPoint x="4781" y="406" />
            </Array>
          </mxGeometry>
        </mxCell>
        <mxCell id="yOSMcTYDRqUJQmrgSBVF-42" value="" style="edgeStyle=orthogonalEdgeStyle;rounded=0;orthogonalLoop=1;jettySize=auto;html=1;" parent="1" source="yOSMcTYDRqUJQmrgSBVF-43" target="yOSMcTYDRqUJQmrgSBVF-46" edge="1">
          <mxGeometry relative="1" as="geometry" />
        </mxCell>
        <mxCell id="yOSMcTYDRqUJQmrgSBVF-43" value="Output(User):&lt;div&gt;Statistik Klub UCL&lt;/div&gt;&lt;div&gt;&lt;div&gt;1. Tampilkan Data Klub&lt;/div&gt;&lt;div&gt;0. Keluar&lt;/div&gt;&lt;div&gt;Silahkan Pilih Menu:&lt;/div&gt;&lt;/div&gt;" style="shape=parallelogram;html=1;strokeWidth=2;perimeter=parallelogramPerimeter;whiteSpace=wrap;rounded=1;arcSize=12;size=0.23;" parent="1" vertex="1">
          <mxGeometry x="4541" y="300" width="235" height="130" as="geometry" />
        </mxCell>
        <mxCell id="yOSMcTYDRqUJQmrgSBVF-45" value="" style="edgeStyle=orthogonalEdgeStyle;rounded=0;orthogonalLoop=1;jettySize=auto;html=1;" parent="1" source="yOSMcTYDRqUJQmrgSBVF-46" target="yOSMcTYDRqUJQmrgSBVF-66" edge="1">
          <mxGeometry relative="1" as="geometry" />
        </mxCell>
        <mxCell id="yOSMcTYDRqUJQmrgSBVF-96" value="" style="edgeStyle=orthogonalEdgeStyle;rounded=0;orthogonalLoop=1;jettySize=auto;html=1;" parent="1" source="yOSMcTYDRqUJQmrgSBVF-46" target="yOSMcTYDRqUJQmrgSBVF-58" edge="1">
          <mxGeometry relative="1" as="geometry" />
        </mxCell>
        <mxCell id="yOSMcTYDRqUJQmrgSBVF-46" value="Pilihan 1?" style="strokeWidth=2;html=1;shape=mxgraph.flowchart.decision;whiteSpace=wrap;" parent="1" vertex="1">
          <mxGeometry x="4597.75" y="490" width="121.5" height="120" as="geometry" />
        </mxCell>
        <mxCell id="yOSMcTYDRqUJQmrgSBVF-56" value="" style="edgeStyle=orthogonalEdgeStyle;rounded=0;orthogonalLoop=1;jettySize=auto;html=1;" parent="1" source="yOSMcTYDRqUJQmrgSBVF-58" target="yOSMcTYDRqUJQmrgSBVF-93" edge="1">
          <mxGeometry relative="1" as="geometry" />
        </mxCell>
        <mxCell id="yOSMcTYDRqUJQmrgSBVF-57" value="" style="edgeStyle=orthogonalEdgeStyle;rounded=0;orthogonalLoop=1;jettySize=auto;html=1;" parent="1" source="yOSMcTYDRqUJQmrgSBVF-58" target="yOSMcTYDRqUJQmrgSBVF-95" edge="1">
          <mxGeometry relative="1" as="geometry" />
        </mxCell>
        <mxCell id="yOSMcTYDRqUJQmrgSBVF-58" value="Pilihan 0?" style="strokeWidth=2;html=1;shape=mxgraph.flowchart.decision;whiteSpace=wrap;" parent="1" vertex="1">
          <mxGeometry x="4850" y="490" width="121.5" height="120" as="geometry" />
        </mxCell>
        <mxCell id="yOSMcTYDRqUJQmrgSBVF-59" value="FALSE" style="text;strokeColor=none;align=center;fillColor=none;html=1;verticalAlign=middle;whiteSpace=wrap;rounded=0;" parent="1" vertex="1">
          <mxGeometry x="4759" y="520" width="60" height="30" as="geometry" />
        </mxCell>
        <mxCell id="yOSMcTYDRqUJQmrgSBVF-63" value="TRUE" style="text;strokeColor=none;align=center;fillColor=none;html=1;verticalAlign=middle;whiteSpace=wrap;rounded=0;" parent="1" vertex="1">
          <mxGeometry x="4650" y="620" width="60" height="30" as="geometry" />
        </mxCell>
        <mxCell id="yOSMcTYDRqUJQmrgSBVF-64" style="edgeStyle=orthogonalEdgeStyle;rounded=0;orthogonalLoop=1;jettySize=auto;html=1;exitX=1;exitY=1;exitDx=0;exitDy=0;" parent="1" source="yOSMcTYDRqUJQmrgSBVF-66" edge="1">
          <mxGeometry relative="1" as="geometry">
            <mxPoint x="4760" y="734.5" as="targetPoint" />
          </mxGeometry>
        </mxCell>
        <mxCell id="yOSMcTYDRqUJQmrgSBVF-99" style="edgeStyle=orthogonalEdgeStyle;rounded=0;orthogonalLoop=1;jettySize=auto;html=1;exitX=0;exitY=0.5;exitDx=0;exitDy=0;entryX=0;entryY=0.25;entryDx=0;entryDy=0;" parent="1" source="yOSMcTYDRqUJQmrgSBVF-66" target="yOSMcTYDRqUJQmrgSBVF-43" edge="1">
          <mxGeometry relative="1" as="geometry">
            <Array as="points">
              <mxPoint x="4440" y="710" />
              <mxPoint x="4440" y="343" />
            </Array>
          </mxGeometry>
        </mxCell>
        <mxCell id="yOSMcTYDRqUJQmrgSBVF-66" value="Output: Nama Tim, Statistik(Main, Menang, Seri, Kalah, Gol, Kebobolan)" style="shape=parallelogram;html=1;strokeWidth=2;perimeter=parallelogramPerimeter;whiteSpace=wrap;rounded=1;arcSize=12;size=0.23;" parent="1" vertex="1">
          <mxGeometry x="4560" y="670" width="199" height="80" as="geometry" />
        </mxCell>
        <mxCell id="yOSMcTYDRqUJQmrgSBVF-91" style="edgeStyle=orthogonalEdgeStyle;rounded=0;orthogonalLoop=1;jettySize=auto;html=1;exitX=1;exitY=1;exitDx=0;exitDy=0;" parent="1" source="yOSMcTYDRqUJQmrgSBVF-93" edge="1">
          <mxGeometry relative="1" as="geometry">
            <mxPoint x="5221.25" y="575" as="targetPoint" />
          </mxGeometry>
        </mxCell>
        <mxCell id="yOSMcTYDRqUJQmrgSBVF-100" style="edgeStyle=orthogonalEdgeStyle;rounded=0;orthogonalLoop=1;jettySize=auto;html=1;exitX=1;exitY=0.5;exitDx=0;exitDy=0;entryX=1;entryY=0.25;entryDx=0;entryDy=0;" parent="1" source="yOSMcTYDRqUJQmrgSBVF-93" target="yOSMcTYDRqUJQmrgSBVF-43" edge="1">
          <mxGeometry relative="1" as="geometry">
            <Array as="points">
              <mxPoint x="5320" y="550" />
              <mxPoint x="5320" y="337" />
            </Array>
          </mxGeometry>
        </mxCell>
        <mxCell id="yOSMcTYDRqUJQmrgSBVF-93" value="Output: Pilihan Tidak Valid" style="shape=parallelogram;html=1;strokeWidth=2;perimeter=parallelogramPerimeter;whiteSpace=wrap;rounded=1;arcSize=12;size=0.23;" parent="1" vertex="1">
          <mxGeometry x="5021.25" y="510" width="199" height="80" as="geometry" />
        </mxCell>
        <mxCell id="yOSMcTYDRqUJQmrgSBVF-94" value="" style="verticalLabelPosition=bottom;verticalAlign=top;html=1;shape=mxgraph.flowchart.on-page_reference;" parent="1" vertex="1">
          <mxGeometry x="4880.75" y="685" width="60" height="60" as="geometry" />
        </mxCell>
        <mxCell id="yOSMcTYDRqUJQmrgSBVF-95" value="3" style="text;strokeColor=none;align=center;fillColor=none;html=1;verticalAlign=middle;whiteSpace=wrap;rounded=0;" parent="1" vertex="1">
          <mxGeometry x="4880.75" y="700" width="60" height="30" as="geometry" />
        </mxCell>
      </root>
    </mxGraphModel>
  </diagram>
</mxfile>
